<?xml version="1.0" encoding="UTF-8" standalone="no"?>
<!-- Created with Inkscape (http://www.inkscape.org/) -->
<svg
   xmlns:dc="http://purl.org/dc/elements/1.1/"
   xmlns:cc="http://web.resource.org/cc/"
   xmlns:rdf="http://www.w3.org/1999/02/22-rdf-syntax-ns#"
   xmlns:svg="http://www.w3.org/2000/svg"
   xmlns="http://www.w3.org/2000/svg"
   xmlns:sodipodi="http://sodipodi.sourceforge.net/DTD/sodipodi-0.dtd"
   xmlns:inkscape="http://www.inkscape.org/namespaces/inkscape"
   width="514.29456"
   height="116.41814"
   id="svg33440"
   sodipodi:version="0.32"
   inkscape:version="0.44"
   version="1.0"
   sodipodi:docbase="E:\Logos"
   sodipodi:docname="Yamaha_Logo.svg">
  <defs
     id="defs33442" />
  <sodipodi:namedview
     id="base"
     pagecolor="#ffffff"
     bordercolor="#666666"
     borderopacity="1.0"
     inkscape:pageopacity="0.0"
     inkscape:pageshadow="2"
     inkscape:zoom="0.35"
     inkscape:cx="350"
     inkscape:cy="106.67783"
     inkscape:document-units="px"
     inkscape:current-layer="layer1"
     inkscape:window-width="925"
     inkscape:window-height="573"
     inkscape:window-x="90"
     inkscape:window-y="324" />
  <metadata
     id="metadata33445">
    <rdf:RDF>
      <cc:Work
         rdf:about="">
        <dc:format>image/svg+xml</dc:format>
        <dc:type
           rdf:resource="http://purl.org/dc/dcmitype/StillImage" />
      </cc:Work>
    </rdf:RDF>
  </metadata>
  <g
     inkscape:label="Ebene 1"
     inkscape:groupmode="layer"
     id="layer1"
     transform="translate(-111.1255,-129.1053)">
    <g
       id="g33493">
      <g
         transform="matrix(1.193224,0,0,1.193224,20.77841,-593.6372)"
         id="g33399">
        <path
           id="path31531"
           class="ps01"
           d="M 405.55908,695.16203 L 405.55908,613.86535 L 419.77599,613.86535 L 419.77599,645.00238 L 435.39457,645.00238 L 435.39457,613.86535 L 449.91183,613.86535 L 449.91183,695.16203 L 435.39457,695.16203 L 435.39457,659.41953 L 419.77599,659.41953 L 419.77599,695.16203"
           style="fill:black;fill-rule:nonzero;stroke:none" />
        <path
           id="path31533"
           class="ps01"
           d="M 197.36148,663.67459 L 181.59272,613.86535 L 195.75957,613.86535 L 205.47112,645.50298 L 216.23392,613.86535 L 229.54976,613.86535 L 213.18029,662.07268 L 213.18029,695.16203 L 197.36148,695.16203"
           style="fill:black;fill-rule:nonzero;stroke:none" />
        <path
           id="path31535"
           class="ps01"
           d="M 281.91203,695.16203 L 294.67721,695.16203 L 294.67721,633.8391 L 305.54013,687.15251 L 317.4543,687.15251 L 327.11579,632.98809 L 327.11579,695.16203 L 342.03353,695.16203 L 342.03353,613.86535 L 318.85597,613.86535 L 312.04787,652.51131 L 304.13847,613.86535 L 281.91203,613.86535"
           style="fill:black;fill-rule:nonzero;stroke:none" />
        <path
           id="path31537"
           class="ps01"
           d="M 471.28725,613.86535 L 493.31345,613.86535 L 506.7294,695.16203 L 492.21214,695.16203 L 489.15851,676.23953 L 472.78904,676.23953 L 469.58523,695.16203 L 456.41957,695.16203 L 471.28725,613.86535 z M 486.95589,662.6734 L 481.09892,626.33017 L 475.04172,662.6734 L 486.95589,662.6734"
           style="fill:black;fill-rule:nonzero;stroke:none" />
        <path
           id="path31539"
           class="ps01"
           d="M 363.40896,613.86535 L 385.38509,613.86535 L 398.80105,695.16203 L 384.33384,695.16203 L 381.23015,676.23953 L 364.86068,676.23953 L 361.70693,695.16203 L 348.54127,695.16203 L 363.40896,613.86535 z M 367.11336,662.6734 L 379.07759,662.6734 L 373.17056,626.33017 L 367.11336,662.6734"
           style="fill:black;fill-rule:nonzero;stroke:none" />
        <path
           id="path31541"
           class="ps01"
           d="M 224.89422,695.16203 L 239.7619,613.86535 L 261.73804,613.86535 L 275.154,695.16203 L 260.63673,695.16203 L 257.5831,676.23953 L 241.21363,676.23953 L 238.05988,695.16203 L 224.89422,695.16203 z M 243.46631,662.6734 L 255.43054,662.6734 L 249.52351,626.33017 L 243.46631,662.6734"
           style="fill:black;fill-rule:nonzero;stroke:none" />
      </g>
      <g
         transform="matrix(1.193224,0,0,1.193224,20.77841,-593.6372)"
         id="g33391">
        <path
           id="path31543"
           class="ps01"
           d="M 75.716807,654.51369 C 75.716807,627.58166 97.542765,605.70564 124.47479,605.70564 C 151.40682,605.70564 173.23278,627.58166 173.23278,654.51369 C 173.23278,681.44572 151.40682,703.27168 124.47479,703.27168 C 97.542765,703.27168 75.716807,681.44572 75.716807,654.51369 z M 124.47479,701.16918 C 150.25546,701.16918 171.18034,680.29435 171.18034,654.51369 C 171.18034,628.68297 150.25546,607.80815 124.47479,607.80815 C 98.694134,607.80815 77.769248,628.68297 77.769248,654.51369 C 77.769248,680.29435 98.694134,701.16918 124.47479,701.16918"
           style="fill:black;fill-rule:nonzero;stroke:none" />
        <path
           id="path31545"
           class="ps01"
           d="M 83.075559,654.51369 C 83.075559,631.63648 101.59759,613.0644 124.47479,613.0644 C 147.352,613.0644 165.92409,631.63648 165.92409,654.51369 C 165.92409,677.3909 147.352,695.91293 124.47479,695.91293 C 101.59759,695.91293 83.075559,677.3909 83.075559,654.51369 z M 158.41516,673.28602 L 151.65712,665.37661 C 151.557,665.27649 151.45688,665.22643 151.35676,665.12631 C 151.00635,664.92607 150.60587,664.92607 150.25546,665.12631 C 149.2042,665.57685 147.95272,665.57685 146.90147,664.97613 C 145.95034,664.42548 145.34962,663.52441 145.14938,662.52322 C 144.69885,659.97018 143.147,657.61738 140.74414,656.26578 L 137.69051,654.51369 L 154.96105,644.55184 L 152.80849,640.84744 L 133.43545,652.01071 L 131.08265,650.65911 L 131.08265,648.00595 L 150.45569,636.79262 L 148.35319,633.08821 L 131.08265,643.05006 L 131.08265,639.54589 C 131.08265,636.74256 129.83116,634.28964 127.87884,632.58762 C 127.12795,631.93684 126.62735,630.93565 126.62735,629.83434 C 126.62735,628.63291 127.22807,627.5316 128.1792,626.88083 C 128.47956,626.68059 128.6798,626.33017 128.6798,625.9297 C 128.6798,625.77952 128.6798,625.62934 128.62974,625.52922 L 125.17563,615.71755 C 125.07551,615.41719 124.77515,615.21696 124.47479,615.21696 C 124.17444,615.21696 123.87408,615.41719 123.77396,615.71755 L 120.31985,625.52922 C 120.26979,625.62934 120.26979,625.77952 120.26979,625.9297 C 120.26979,626.33017 120.47003,626.68059 120.77039,626.88083 C 121.72152,627.5316 122.32223,628.63291 122.32223,629.83434 C 122.32223,630.93565 121.8717,631.93684 121.07075,632.58762 C 119.11842,634.28964 117.86694,636.74256 117.86694,639.54589 L 117.86694,643.05006 L 100.5964,633.08821 L 98.493896,636.79262 L 117.86694,648.00595 L 117.86694,650.65911 L 115.5642,652.01071 L 96.141098,640.84744 L 93.988538,644.55184 L 111.25908,654.51369 L 108.25551,656.26578 C 105.80259,657.61738 104.3008,659.97018 103.80021,662.52322 C 103.59997,663.52441 102.99925,664.42548 102.04812,664.97613 C 100.99687,665.57685 99.745384,665.57685 98.694134,665.12631 C 98.393777,664.92607 97.943241,664.92607 97.592824,665.12631 C 97.492705,665.22643 97.392586,665.27649 97.342526,665.37661 L 90.53443,673.28602 C 90.334192,673.53631 90.284132,673.83667 90.434311,674.13703 C 90.634549,674.43739 90.934906,674.53751 91.235263,674.48745 L 101.49747,672.58518 C 101.59759,672.53512 101.69771,672.48506 101.84788,672.43501 C 102.1983,672.23477 102.39854,671.88435 102.39854,671.53393 L 102.39854,671.53393 C 102.49866,670.38256 103.14943,669.28125 104.20068,668.68054 C 105.15181,668.12989 106.25312,668.02977 107.20425,668.38018 C 109.65717,669.23119 112.41045,669.08102 114.86336,667.67935 L 117.86694,665.92727 L 117.86694,685.85096 L 122.17206,685.85096 L 122.17206,663.47435 L 124.47479,662.12274 L 126.82759,663.47435 L 126.82759,685.85096 L 131.08265,685.85096 L 131.08265,665.92727 L 134.13628,667.67935 C 136.53914,669.08102 139.29242,669.23119 141.74533,668.38018 C 142.69647,668.02977 143.79778,668.12989 144.74891,668.68054 C 145.80016,669.28125 146.45093,670.38256 146.55105,671.53393 L 146.55105,671.53393 C 146.60111,671.88435 146.80135,672.23477 147.1017,672.43501 C 147.25188,672.48506 147.352,672.53512 147.50218,672.58518 L 157.71433,674.48745 C 158.01468,674.53751 158.31504,674.43739 158.51528,674.13703 C 158.66546,673.83667 158.6154,673.53631 158.41516,673.28602"
           style="fill:black;fill-rule:nonzero;stroke:none" />
        <path
           id="path31547"
           class="ps01"
           d="M 124.47479,657.61738 L 121.77158,656.06554 L 121.77158,652.96185 L 124.47479,651.41 L 127.17801,652.96185 L 127.17801,656.06554"
           style="fill:black;fill-rule:nonzero;stroke:none" />
        <path
           id="path31549"
           class="ps01"
           d="M 122.17206,638.94518 C 122.17206,637.64363 123.17325,636.59238 124.47479,636.59238 C 125.77634,636.59238 126.82759,637.64363 126.82759,638.94518 L 126.82759,645.50298 L 124.47479,646.85458 L 122.17206,645.50298"
           style="fill:black;fill-rule:nonzero;stroke:none" />
        <path
           id="path31551"
           class="ps01"
           d="M 112.16015,664.2753 C 111.05884,664.92607 109.65717,664.5256 109.0064,663.42429 C 108.35562,662.32298 108.7561,660.87125 109.85741,660.27054 L 115.5642,656.96661 L 117.86694,658.31822 L 117.86694,661.02143"
           style="fill:black;fill-rule:nonzero;stroke:none" />
        <path
           id="path31553"
           class="ps01"
           d="M 139.94319,663.42429 C 139.29242,664.5256 137.89075,664.92607 136.78944,664.2753 L 131.08265,661.02143 L 131.08265,658.31822 L 133.43545,656.96661 L 139.09218,660.27054 C 140.24355,660.87125 140.59396,662.32298 139.94319,663.42429"
           style="fill:black;fill-rule:nonzero;stroke:none" />
      </g>
    </g>
  </g>
</svg>
