<?xml version="1.0" encoding="UTF-8" standalone="no"?>
<!-- Created with Inkscape (http://www.inkscape.org/) -->

<svg
   xmlns:dc="http://purl.org/dc/elements/1.1/"
   xmlns:cc="http://creativecommons.org/ns#"
   xmlns:rdf="http://www.w3.org/1999/02/22-rdf-syntax-ns#"
   xmlns:svg="http://www.w3.org/2000/svg"
   xmlns="http://www.w3.org/2000/svg"
   xmlns:xlink="http://www.w3.org/1999/xlink"
   xmlns:sodipodi="http://sodipodi.sourceforge.net/DTD/sodipodi-0.dtd"
   xmlns:inkscape="http://www.inkscape.org/namespaces/inkscape"
   width="124.11562"
   height="124.17934"
   id="svg33440"
   sodipodi:version="0.32"
   inkscape:version="0.92.2 (5c3e80d, 2017-08-06)"
   version="1.0"
   sodipodi:docname="Yamaha_Logo_2.svg"
   viewBox="0 0 116.3584 116.41815"
   inkscape:export-filename="C:\__Data\Eclipse - Workspace\YamahaControl\res\Yamaha_Logo_256.png"
   inkscape:export-xdpi="198.00999"
   inkscape:export-ydpi="198.00999">
  <defs
     id="defs33442">
    <linearGradient
       inkscape:collect="always"
       id="linearGradient844">
      <stop
         style="stop-color:#7b7b7b;stop-opacity:1"
         offset="0"
         id="stop840" />
      <stop
         style="stop-color:#ffffff;stop-opacity:1"
         offset="1"
         id="stop842" />
    </linearGradient>
    <linearGradient
       inkscape:collect="always"
       xlink:href="#linearGradient844"
       id="linearGradient846"
       x1="94.291168"
       y1="93.536613"
       x2="29.686832"
       y2="32.673534"
       gradientUnits="userSpaceOnUse" />
  </defs>
  <sodipodi:namedview
     id="base"
     pagecolor="#ffffff"
     bordercolor="#666666"
     borderopacity="1.0"
     inkscape:pageopacity="0.0"
     inkscape:pageshadow="2"
     inkscape:zoom="3.959798"
     inkscape:cx="73.05386"
     inkscape:cy="63.116795"
     inkscape:document-units="px"
     inkscape:current-layer="svg33440"
     inkscape:window-width="1393"
     inkscape:window-height="760"
     inkscape:window-x="442"
     inkscape:window-y="137"
     showgrid="false"
     inkscape:window-maximized="0" />
  <metadata
     id="metadata33445">
    <rdf:RDF>
      <cc:Work
         rdf:about="">
        <dc:format>image/svg+xml</dc:format>
        <dc:type
           rdf:resource="http://purl.org/dc/dcmitype/StillImage" />
        <dc:title />
      </cc:Work>
    </rdf:RDF>
  </metadata>
  <circle
     style="fill:url(#linearGradient846);fill-opacity:1;stroke:none;stroke-width:37.33817291;stroke-linejoin:miter;stroke-miterlimit:4;stroke-dasharray:none;stroke-opacity:1"
     id="path827"
     cx="58.223732"
     cy="58.023445"
     r="57.92411" />
  <g
     inkscape:label="Ebene 1"
     inkscape:groupmode="layer"
     id="layer1"
     transform="translate(-111.12552,-129.10531)">
    <g
       id="g33493">
      <g
         transform="matrix(1.193224,0,0,1.193224,20.77841,-593.6372)"
         id="g33391">
        <path
           id="path31543"
           class="ps01"
           d="m 75.716807,654.51369 c 0,-26.93203 21.825958,-48.80805 48.757983,-48.80805 26.93203,0 48.75799,21.87602 48.75799,48.80805 0,26.93203 -21.82596,48.75799 -48.75799,48.75799 -26.932025,0 -48.757983,-21.82596 -48.757983,-48.75799 z m 48.757983,46.65549 c 25.78067,0 46.70555,-20.87483 46.70555,-46.65549 0,-25.83072 -20.92488,-46.70554 -46.70555,-46.70554 -25.780656,0 -46.705542,20.87482 -46.705542,46.70554 0,25.78066 20.924886,46.65549 46.705542,46.65549"
           style="fill:#000000;fill-rule:nonzero;stroke:none"
           inkscape:connector-curvature="0" />
        <path
           id="path31545"
           class="ps01"
           d="m 83.075559,654.51369 c 0,-22.87721 18.522031,-41.44929 41.399231,-41.44929 22.87721,0 41.4493,18.57208 41.4493,41.44929 0,22.87721 -18.57209,41.39924 -41.4493,41.39924 -22.8772,0 -41.399231,-18.52203 -41.399231,-41.39924 z m 75.339601,18.77233 -6.75804,-7.90941 c -0.10012,-0.10012 -0.20024,-0.15018 -0.30036,-0.2503 -0.35041,-0.20024 -0.75089,-0.20024 -1.1013,0 -1.05126,0.45054 -2.30274,0.45054 -3.35399,-0.15018 -0.95113,-0.55065 -1.55185,-1.45172 -1.75209,-2.45291 -0.45053,-2.55304 -2.00238,-4.90584 -4.40524,-6.25744 l -3.05363,-1.75209 17.27054,-9.96185 -2.15256,-3.7044 -19.37304,11.16327 -2.3528,-1.3516 v -2.65316 l 19.37304,-11.21333 -2.1025,-3.70441 -17.27054,9.96185 v -3.50417 c 0,-2.80333 -1.25149,-5.25625 -3.20381,-6.95827 -0.75089,-0.65078 -1.25149,-1.65197 -1.25149,-2.75328 0,-1.20143 0.60072,-2.30274 1.55185,-2.95351 0.30036,-0.20024 0.5006,-0.55066 0.5006,-0.95113 0,-0.15018 0,-0.30036 -0.0501,-0.40048 l -3.45411,-9.81167 c -0.10012,-0.30036 -0.40048,-0.50059 -0.70084,-0.50059 -0.30035,0 -0.60071,0.20023 -0.70083,0.50059 l -3.45411,9.81167 c -0.0501,0.10012 -0.0501,0.2503 -0.0501,0.40048 0,0.40047 0.20024,0.75089 0.5006,0.95113 0.95113,0.65077 1.55184,1.75208 1.55184,2.95351 0,1.10131 -0.45053,2.1025 -1.25148,2.75328 -1.95233,1.70202 -3.20381,4.15494 -3.20381,6.95827 v 3.50417 l -17.27054,-9.96185 -2.102504,3.70441 19.373044,11.21333 v 2.65316 l -2.30274,1.3516 -19.423102,-11.16327 -2.15256,3.7044 17.270542,9.96185 -3.00357,1.75209 c -2.45292,1.3516 -3.95471,3.7044 -4.4553,6.25744 -0.20024,1.00119 -0.80096,1.90226 -1.75209,2.45291 -1.05125,0.60072 -2.302736,0.60072 -3.353986,0.15018 -0.300357,-0.20024 -0.750893,-0.20024 -1.10131,0 -0.100119,0.10012 -0.200238,0.15018 -0.250298,0.2503 l -6.808096,7.90941 c -0.200238,0.25029 -0.250298,0.55065 -0.100119,0.85101 0.200238,0.30036 0.500595,0.40048 0.800952,0.35042 l 10.262207,-1.90227 c 0.10012,-0.0501 0.20024,-0.10012 0.35041,-0.15017 0.35042,-0.20024 0.55066,-0.55066 0.55066,-0.90108 v 0 c 0.10012,-1.15137 0.75089,-2.25268 1.80214,-2.85339 0.95113,-0.55065 2.05244,-0.65077 3.00357,-0.30036 2.45292,0.85101 5.2062,0.70084 7.65911,-0.70083 l 3.00358,-1.75208 v 19.92369 h 4.30512 v -22.37661 l 2.30273,-1.35161 2.3528,1.35161 v 22.37661 h 4.25506 v -19.92369 l 3.05363,1.75208 c 2.40286,1.40167 5.15614,1.55184 7.60905,0.70083 0.95114,-0.35041 2.05245,-0.25029 3.00358,0.30036 1.05125,0.60071 1.70202,1.70202 1.80214,2.85339 v 0 c 0.0501,0.35042 0.2503,0.70084 0.55065,0.90108 0.15018,0.05 0.2503,0.10011 0.40048,0.15017 l 10.21215,1.90227 c 0.30035,0.0501 0.60071,-0.0501 0.80095,-0.35042 0.15018,-0.30036 0.10012,-0.60072 -0.10012,-0.85101"
           style="fill:#000000;fill-rule:nonzero;stroke:none"
           inkscape:connector-curvature="0" />
        <path
           id="path31547"
           class="ps01"
           d="m 124.47479,657.61738 -2.70321,-1.55184 v -3.10369 l 2.70321,-1.55185 2.70322,1.55185 v 3.10369"
           style="fill:#000000;fill-rule:nonzero;stroke:none"
           inkscape:connector-curvature="0" />
        <path
           id="path31549"
           class="ps01"
           d="m 122.17206,638.94518 c 0,-1.30155 1.00119,-2.3528 2.30273,-2.3528 1.30155,0 2.3528,1.05125 2.3528,2.3528 v 6.5578 l -2.3528,1.3516 -2.30273,-1.3516"
           style="fill:#000000;fill-rule:nonzero;stroke:none"
           inkscape:connector-curvature="0" />
        <path
           id="path31551"
           class="ps01"
           d="m 112.16015,664.2753 c -1.10131,0.65077 -2.50298,0.2503 -3.15375,-0.85101 -0.65078,-1.10131 -0.2503,-2.55304 0.85101,-3.15375 l 5.70679,-3.30393 2.30274,1.35161 v 2.70321"
           style="fill:#000000;fill-rule:nonzero;stroke:none"
           inkscape:connector-curvature="0" />
        <path
           id="path31553"
           class="ps01"
           d="m 139.94319,663.42429 c -0.65077,1.10131 -2.05244,1.50178 -3.15375,0.85101 l -5.70679,-3.25387 v -2.70321 l 2.3528,-1.35161 5.65673,3.30393 c 1.15137,0.60071 1.50178,2.05244 0.85101,3.15375"
           style="fill:#000000;fill-rule:nonzero;stroke:none"
           inkscape:connector-curvature="0" />
      </g>
    </g>
  </g>
</svg>
